<mxfile host="app.diagrams.net" agent="Mozilla/5.0 (Windows NT 10.0; Win64; x64) AppleWebKit/537.36 (KHTML, like Gecko) Chrome/131.0.0.0 Safari/537.36" version="24.8.0">
  <diagram name="第 1 页" id="s1ok281lPoGeKucmSTaU">
    <mxGraphModel dx="2074" dy="1140" grid="1" gridSize="10" guides="1" tooltips="1" connect="1" arrows="1" fold="1" page="1" pageScale="1" pageWidth="827" pageHeight="1169" math="0" shadow="0">
      <root>
        <mxCell id="0" />
        <mxCell id="1" parent="0" />
        <mxCell id="I0Lt0m0cpkMHhaSuFm3Z-7" style="edgeStyle=orthogonalEdgeStyle;rounded=0;orthogonalLoop=1;jettySize=auto;html=1;exitX=0;exitY=0.5;exitDx=0;exitDy=0;exitPerimeter=0;entryX=0.75;entryY=0;entryDx=0;entryDy=0;" edge="1" parent="1" source="I0Lt0m0cpkMHhaSuFm3Z-3" target="I0Lt0m0cpkMHhaSuFm3Z-5">
          <mxGeometry relative="1" as="geometry" />
        </mxCell>
        <mxCell id="I0Lt0m0cpkMHhaSuFm3Z-3" value="&quot;Model B&quot;&lt;div&gt;or&lt;/div&gt;&quot;theta_B&lt;span style=&quot;background-color: initial;&quot;&gt;&quot;&lt;/span&gt;" style="shape=cylinder3;whiteSpace=wrap;html=1;boundedLbl=1;backgroundOutline=1;size=15;" vertex="1" parent="1">
          <mxGeometry x="360" y="310" width="60" height="80" as="geometry" />
        </mxCell>
        <mxCell id="I0Lt0m0cpkMHhaSuFm3Z-6" style="edgeStyle=orthogonalEdgeStyle;rounded=0;orthogonalLoop=1;jettySize=auto;html=1;exitX=1;exitY=0.5;exitDx=0;exitDy=0;exitPerimeter=0;entryX=0.25;entryY=0;entryDx=0;entryDy=0;" edge="1" parent="1" source="I0Lt0m0cpkMHhaSuFm3Z-4" target="I0Lt0m0cpkMHhaSuFm3Z-5">
          <mxGeometry relative="1" as="geometry" />
        </mxCell>
        <mxCell id="I0Lt0m0cpkMHhaSuFm3Z-12" style="edgeStyle=orthogonalEdgeStyle;rounded=0;orthogonalLoop=1;jettySize=auto;html=1;exitX=0.5;exitY=1;exitDx=0;exitDy=0;exitPerimeter=0;entryX=0.25;entryY=0;entryDx=0;entryDy=0;" edge="1" parent="1" source="I0Lt0m0cpkMHhaSuFm3Z-4" target="I0Lt0m0cpkMHhaSuFm3Z-10">
          <mxGeometry relative="1" as="geometry">
            <Array as="points">
              <mxPoint x="150" y="620" />
              <mxPoint x="210" y="620" />
            </Array>
          </mxGeometry>
        </mxCell>
        <mxCell id="I0Lt0m0cpkMHhaSuFm3Z-4" value="&quot;Model A&quot;&lt;div&gt;or&lt;br&gt;&quot;theta_A&quot;&lt;/div&gt;" style="shape=cylinder3;whiteSpace=wrap;html=1;boundedLbl=1;backgroundOutline=1;size=15;" vertex="1" parent="1">
          <mxGeometry x="120" y="310" width="60" height="80" as="geometry" />
        </mxCell>
        <mxCell id="I0Lt0m0cpkMHhaSuFm3Z-8" style="edgeStyle=orthogonalEdgeStyle;rounded=0;orthogonalLoop=1;jettySize=auto;html=1;exitX=0.5;exitY=1;exitDx=0;exitDy=0;entryX=0.5;entryY=0;entryDx=0;entryDy=0;entryPerimeter=0;" edge="1" parent="1" source="I0Lt0m0cpkMHhaSuFm3Z-5" target="I0Lt0m0cpkMHhaSuFm3Z-9">
          <mxGeometry relative="1" as="geometry">
            <mxPoint x="270" y="540" as="targetPoint" />
          </mxGeometry>
        </mxCell>
        <mxCell id="I0Lt0m0cpkMHhaSuFm3Z-5" value="&quot;Algorithm 1&quot;&lt;div&gt;Perm + SOLVELAP&lt;/div&gt;" style="rounded=0;whiteSpace=wrap;html=1;" vertex="1" parent="1">
          <mxGeometry x="210" y="420" width="120" height="60" as="geometry" />
        </mxCell>
        <mxCell id="I0Lt0m0cpkMHhaSuFm3Z-11" style="edgeStyle=orthogonalEdgeStyle;rounded=0;orthogonalLoop=1;jettySize=auto;html=1;exitX=0.5;exitY=1;exitDx=0;exitDy=0;exitPerimeter=0;entryX=0.75;entryY=0;entryDx=0;entryDy=0;" edge="1" parent="1" source="I0Lt0m0cpkMHhaSuFm3Z-9" target="I0Lt0m0cpkMHhaSuFm3Z-10">
          <mxGeometry relative="1" as="geometry" />
        </mxCell>
        <mxCell id="I0Lt0m0cpkMHhaSuFm3Z-9" value="&quot;phi(theta_B)&quot;&lt;div&gt;or&lt;/div&gt;&lt;div&gt;&quot;proj(theta_B)&quot;&lt;/div&gt;" style="shape=cylinder3;whiteSpace=wrap;html=1;boundedLbl=1;backgroundOutline=1;size=15;" vertex="1" parent="1">
          <mxGeometry x="230" y="520" width="80" height="80" as="geometry" />
        </mxCell>
        <mxCell id="I0Lt0m0cpkMHhaSuFm3Z-10" value="&quot;Algorithm 2.1&quot;&lt;div&gt;Midpoint&lt;/div&gt;" style="rounded=0;whiteSpace=wrap;html=1;" vertex="1" parent="1">
          <mxGeometry x="180" y="650" width="120" height="60" as="geometry" />
        </mxCell>
        <mxCell id="I0Lt0m0cpkMHhaSuFm3Z-16" style="edgeStyle=orthogonalEdgeStyle;rounded=0;orthogonalLoop=1;jettySize=auto;html=1;exitX=1;exitY=0.5;exitDx=0;exitDy=0;exitPerimeter=0;entryX=0.5;entryY=1;entryDx=0;entryDy=0;" edge="1" parent="1" source="I0Lt0m0cpkMHhaSuFm3Z-13" target="I0Lt0m0cpkMHhaSuFm3Z-15">
          <mxGeometry relative="1" as="geometry" />
        </mxCell>
        <mxCell id="I0Lt0m0cpkMHhaSuFm3Z-30" style="edgeStyle=orthogonalEdgeStyle;rounded=0;orthogonalLoop=1;jettySize=auto;html=1;exitX=0.5;exitY=1;exitDx=0;exitDy=0;exitPerimeter=0;entryX=0.5;entryY=0;entryDx=0;entryDy=0;" edge="1" parent="1" source="I0Lt0m0cpkMHhaSuFm3Z-13" target="I0Lt0m0cpkMHhaSuFm3Z-29">
          <mxGeometry relative="1" as="geometry" />
        </mxCell>
        <mxCell id="I0Lt0m0cpkMHhaSuFm3Z-13" value="1/2 (theta_A + phi(theta_B))" style="shape=cylinder3;whiteSpace=wrap;html=1;boundedLbl=1;backgroundOutline=1;size=15;" vertex="1" parent="1">
          <mxGeometry x="200" y="760" width="80" height="80" as="geometry" />
        </mxCell>
        <mxCell id="I0Lt0m0cpkMHhaSuFm3Z-14" style="edgeStyle=orthogonalEdgeStyle;rounded=0;orthogonalLoop=1;jettySize=auto;html=1;exitX=0.5;exitY=1;exitDx=0;exitDy=0;entryX=0.5;entryY=0;entryDx=0;entryDy=0;entryPerimeter=0;" edge="1" parent="1" source="I0Lt0m0cpkMHhaSuFm3Z-10" target="I0Lt0m0cpkMHhaSuFm3Z-13">
          <mxGeometry relative="1" as="geometry" />
        </mxCell>
        <mxCell id="I0Lt0m0cpkMHhaSuFm3Z-15" value="&quot;Algorithm 2.2&quot;&lt;div&gt;Gradient descent&lt;/div&gt;&lt;div&gt;(loss function / learning rate)&lt;/div&gt;" style="rounded=0;whiteSpace=wrap;html=1;" vertex="1" parent="1">
          <mxGeometry x="330" y="530" width="120" height="60" as="geometry" />
        </mxCell>
        <mxCell id="I0Lt0m0cpkMHhaSuFm3Z-17" style="edgeStyle=orthogonalEdgeStyle;rounded=0;orthogonalLoop=1;jettySize=auto;html=1;exitX=0.5;exitY=0;exitDx=0;exitDy=0;entryX=0.5;entryY=1;entryDx=0;entryDy=0;" edge="1" parent="1" source="I0Lt0m0cpkMHhaSuFm3Z-15" target="I0Lt0m0cpkMHhaSuFm3Z-21">
          <mxGeometry relative="1" as="geometry">
            <mxPoint x="390" y="480" as="targetPoint" />
          </mxGeometry>
        </mxCell>
        <mxCell id="I0Lt0m0cpkMHhaSuFm3Z-21" value="theta_B = hat_theta_B" style="rounded=0;whiteSpace=wrap;html=1;" vertex="1" parent="1">
          <mxGeometry x="350" y="430" width="80" height="40" as="geometry" />
        </mxCell>
        <mxCell id="I0Lt0m0cpkMHhaSuFm3Z-22" style="edgeStyle=orthogonalEdgeStyle;rounded=0;orthogonalLoop=1;jettySize=auto;html=1;exitX=0.5;exitY=0;exitDx=0;exitDy=0;entryX=0.5;entryY=1;entryDx=0;entryDy=0;entryPerimeter=0;" edge="1" parent="1" source="I0Lt0m0cpkMHhaSuFm3Z-21" target="I0Lt0m0cpkMHhaSuFm3Z-3">
          <mxGeometry relative="1" as="geometry" />
        </mxCell>
        <mxCell id="I0Lt0m0cpkMHhaSuFm3Z-23" value="&quot;Algorithm 3.2&quot;&lt;div&gt;Return avg(phi(theta))&lt;/div&gt;" style="rounded=0;whiteSpace=wrap;html=1;" vertex="1" parent="1">
          <mxGeometry x="180" y="950" width="120" height="60" as="geometry" />
        </mxCell>
        <mxCell id="I0Lt0m0cpkMHhaSuFm3Z-25" value="&quot;Algorithm 3.1.1&quot;&lt;div&gt;&lt;span style=&quot;background-color: initial;&quot;&gt;theta_A = avg(all_raw_models)&lt;/span&gt;&lt;/div&gt;" style="rounded=0;whiteSpace=wrap;html=1;" vertex="1" parent="1">
          <mxGeometry x="90" y="200" width="120" height="60" as="geometry" />
        </mxCell>
        <mxCell id="I0Lt0m0cpkMHhaSuFm3Z-26" value="&quot;Algorithm 3.1.2&quot;&lt;div&gt;&lt;span style=&quot;background-color: initial;&quot;&gt;theta_B = individual_raw_models&lt;/span&gt;&lt;/div&gt;" style="rounded=0;whiteSpace=wrap;html=1;" vertex="1" parent="1">
          <mxGeometry x="315" y="200" width="150" height="60" as="geometry" />
        </mxCell>
        <mxCell id="I0Lt0m0cpkMHhaSuFm3Z-27" style="edgeStyle=orthogonalEdgeStyle;rounded=0;orthogonalLoop=1;jettySize=auto;html=1;exitX=0.5;exitY=1;exitDx=0;exitDy=0;entryX=0.5;entryY=0;entryDx=0;entryDy=0;entryPerimeter=0;" edge="1" parent="1" source="I0Lt0m0cpkMHhaSuFm3Z-25" target="I0Lt0m0cpkMHhaSuFm3Z-4">
          <mxGeometry relative="1" as="geometry" />
        </mxCell>
        <mxCell id="I0Lt0m0cpkMHhaSuFm3Z-28" style="edgeStyle=orthogonalEdgeStyle;rounded=0;orthogonalLoop=1;jettySize=auto;html=1;exitX=0.5;exitY=1;exitDx=0;exitDy=0;entryX=0.5;entryY=0;entryDx=0;entryDy=0;entryPerimeter=0;" edge="1" parent="1" source="I0Lt0m0cpkMHhaSuFm3Z-26" target="I0Lt0m0cpkMHhaSuFm3Z-3">
          <mxGeometry relative="1" as="geometry" />
        </mxCell>
        <mxCell id="I0Lt0m0cpkMHhaSuFm3Z-38" style="edgeStyle=orthogonalEdgeStyle;rounded=0;orthogonalLoop=1;jettySize=auto;html=1;exitX=0.5;exitY=1;exitDx=0;exitDy=0;entryX=0.5;entryY=0;entryDx=0;entryDy=0;" edge="1" parent="1" source="I0Lt0m0cpkMHhaSuFm3Z-29" target="I0Lt0m0cpkMHhaSuFm3Z-23">
          <mxGeometry relative="1" as="geometry" />
        </mxCell>
        <mxCell id="I0Lt0m0cpkMHhaSuFm3Z-40" style="edgeStyle=orthogonalEdgeStyle;rounded=0;orthogonalLoop=1;jettySize=auto;html=1;exitX=0;exitY=0.5;exitDx=0;exitDy=0;entryX=0.5;entryY=0;entryDx=0;entryDy=0;" edge="1" parent="1" source="I0Lt0m0cpkMHhaSuFm3Z-29" target="I0Lt0m0cpkMHhaSuFm3Z-32">
          <mxGeometry relative="1" as="geometry">
            <Array as="points">
              <mxPoint x="60" y="890" />
              <mxPoint x="60" y="90" />
              <mxPoint x="270" y="90" />
            </Array>
          </mxGeometry>
        </mxCell>
        <mxCell id="I0Lt0m0cpkMHhaSuFm3Z-29" value="&quot;Algorithm 2.3 (?)&quot;&lt;div&gt;Return phi(theta)&lt;/div&gt;" style="rounded=0;whiteSpace=wrap;html=1;" vertex="1" parent="1">
          <mxGeometry x="180" y="860" width="120" height="60" as="geometry" />
        </mxCell>
        <mxCell id="I0Lt0m0cpkMHhaSuFm3Z-33" style="edgeStyle=orthogonalEdgeStyle;rounded=0;orthogonalLoop=1;jettySize=auto;html=1;exitX=0;exitY=0.5;exitDx=0;exitDy=0;entryX=0.5;entryY=0;entryDx=0;entryDy=0;" edge="1" parent="1" source="I0Lt0m0cpkMHhaSuFm3Z-32" target="I0Lt0m0cpkMHhaSuFm3Z-25">
          <mxGeometry relative="1" as="geometry" />
        </mxCell>
        <mxCell id="I0Lt0m0cpkMHhaSuFm3Z-34" style="edgeStyle=orthogonalEdgeStyle;rounded=0;orthogonalLoop=1;jettySize=auto;html=1;exitX=1;exitY=0.5;exitDx=0;exitDy=0;entryX=0.5;entryY=0;entryDx=0;entryDy=0;" edge="1" parent="1" source="I0Lt0m0cpkMHhaSuFm3Z-32" target="I0Lt0m0cpkMHhaSuFm3Z-26">
          <mxGeometry relative="1" as="geometry" />
        </mxCell>
        <mxCell id="I0Lt0m0cpkMHhaSuFm3Z-32" value="Loop of &quot;Algorithm 3&quot;" style="ellipse;whiteSpace=wrap;html=1;aspect=fixed;" vertex="1" parent="1">
          <mxGeometry x="230" y="110" width="80" height="80" as="geometry" />
        </mxCell>
        <mxCell id="I0Lt0m0cpkMHhaSuFm3Z-37" value="&lt;span style=&quot;background-color: initial;&quot;&gt;avg(phi(theta))&lt;/span&gt;" style="shape=cylinder3;whiteSpace=wrap;html=1;boundedLbl=1;backgroundOutline=1;size=15;" vertex="1" parent="1">
          <mxGeometry x="200" y="1040" width="80" height="80" as="geometry" />
        </mxCell>
        <mxCell id="I0Lt0m0cpkMHhaSuFm3Z-39" style="edgeStyle=orthogonalEdgeStyle;rounded=0;orthogonalLoop=1;jettySize=auto;html=1;exitX=0.5;exitY=1;exitDx=0;exitDy=0;entryX=0.5;entryY=0;entryDx=0;entryDy=0;entryPerimeter=0;" edge="1" parent="1" source="I0Lt0m0cpkMHhaSuFm3Z-23" target="I0Lt0m0cpkMHhaSuFm3Z-37">
          <mxGeometry relative="1" as="geometry" />
        </mxCell>
        <mxCell id="I0Lt0m0cpkMHhaSuFm3Z-41" value="&lt;h2&gt;Git-Rebasin flowchart (interprepted)&lt;/h2&gt;" style="text;html=1;align=center;verticalAlign=middle;whiteSpace=wrap;rounded=0;" vertex="1" parent="1">
          <mxGeometry x="40" y="30" width="250" height="50" as="geometry" />
        </mxCell>
        <mxCell id="I0Lt0m0cpkMHhaSuFm3Z-42" style="edgeStyle=orthogonalEdgeStyle;rounded=0;orthogonalLoop=1;jettySize=auto;html=1;exitX=0;exitY=0.5;exitDx=0;exitDy=0;exitPerimeter=0;entryX=0.75;entryY=0;entryDx=0;entryDy=0;" edge="1" parent="1" source="I0Lt0m0cpkMHhaSuFm3Z-43" target="I0Lt0m0cpkMHhaSuFm3Z-48">
          <mxGeometry relative="1" as="geometry" />
        </mxCell>
        <mxCell id="I0Lt0m0cpkMHhaSuFm3Z-43" value="&quot;Model B&quot;&lt;div&gt;or&lt;/div&gt;&quot;theta_B&lt;span style=&quot;background-color: initial;&quot;&gt;&quot;&lt;/span&gt;" style="shape=cylinder3;whiteSpace=wrap;html=1;boundedLbl=1;backgroundOutline=1;size=15;" vertex="1" parent="1">
          <mxGeometry x="840" y="320" width="60" height="80" as="geometry" />
        </mxCell>
        <mxCell id="I0Lt0m0cpkMHhaSuFm3Z-44" style="edgeStyle=orthogonalEdgeStyle;rounded=0;orthogonalLoop=1;jettySize=auto;html=1;exitX=1;exitY=0.5;exitDx=0;exitDy=0;exitPerimeter=0;entryX=0.25;entryY=0;entryDx=0;entryDy=0;" edge="1" parent="1" source="I0Lt0m0cpkMHhaSuFm3Z-46" target="I0Lt0m0cpkMHhaSuFm3Z-48">
          <mxGeometry relative="1" as="geometry" />
        </mxCell>
        <mxCell id="I0Lt0m0cpkMHhaSuFm3Z-46" value="&quot;Model A&quot;&lt;div&gt;or&lt;br&gt;&quot;theta_A&quot;&lt;/div&gt;" style="shape=cylinder3;whiteSpace=wrap;html=1;boundedLbl=1;backgroundOutline=1;size=15;" vertex="1" parent="1">
          <mxGeometry x="600" y="320" width="60" height="80" as="geometry" />
        </mxCell>
        <mxCell id="I0Lt0m0cpkMHhaSuFm3Z-47" style="edgeStyle=orthogonalEdgeStyle;rounded=0;orthogonalLoop=1;jettySize=auto;html=1;exitX=0.5;exitY=1;exitDx=0;exitDy=0;entryX=0.5;entryY=0;entryDx=0;entryDy=0;entryPerimeter=0;" edge="1" parent="1" source="I0Lt0m0cpkMHhaSuFm3Z-48" target="I0Lt0m0cpkMHhaSuFm3Z-50">
          <mxGeometry relative="1" as="geometry">
            <mxPoint x="750" y="550" as="targetPoint" />
          </mxGeometry>
        </mxCell>
        <mxCell id="I0Lt0m0cpkMHhaSuFm3Z-48" value="&quot;Algorithm 1&quot;&lt;div&gt;Perm + SOLVELAP&lt;/div&gt;" style="rounded=0;whiteSpace=wrap;html=1;" vertex="1" parent="1">
          <mxGeometry x="690" y="430" width="120" height="60" as="geometry" />
        </mxCell>
        <mxCell id="I0Lt0m0cpkMHhaSuFm3Z-49" style="edgeStyle=orthogonalEdgeStyle;rounded=0;orthogonalLoop=1;jettySize=auto;html=1;exitX=0.5;exitY=1;exitDx=0;exitDy=0;exitPerimeter=0;entryX=0.75;entryY=0;entryDx=0;entryDy=0;" edge="1" parent="1" source="I0Lt0m0cpkMHhaSuFm3Z-50" target="I0Lt0m0cpkMHhaSuFm3Z-51">
          <mxGeometry relative="1" as="geometry" />
        </mxCell>
        <mxCell id="I0Lt0m0cpkMHhaSuFm3Z-50" value="&quot;215b&quot;" style="shape=cylinder3;whiteSpace=wrap;html=1;boundedLbl=1;backgroundOutline=1;size=15;" vertex="1" parent="1">
          <mxGeometry x="710" y="530" width="80" height="80" as="geometry" />
        </mxCell>
        <mxCell id="I0Lt0m0cpkMHhaSuFm3Z-51" value="&quot;Algorithm 2.1&quot;&lt;div&gt;Midpoint&lt;/div&gt;" style="rounded=0;whiteSpace=wrap;html=1;" vertex="1" parent="1">
          <mxGeometry x="660" y="650" width="120" height="60" as="geometry" />
        </mxCell>
        <mxCell id="I0Lt0m0cpkMHhaSuFm3Z-54" value="1/2 (&quot;215a&quot; + &quot;215b&quot;) = &quot;215c&quot;" style="shape=cylinder3;whiteSpace=wrap;html=1;boundedLbl=1;backgroundOutline=1;size=15;" vertex="1" parent="1">
          <mxGeometry x="680" y="760" width="80" height="80" as="geometry" />
        </mxCell>
        <mxCell id="I0Lt0m0cpkMHhaSuFm3Z-55" style="edgeStyle=orthogonalEdgeStyle;rounded=0;orthogonalLoop=1;jettySize=auto;html=1;exitX=0.5;exitY=1;exitDx=0;exitDy=0;entryX=0.5;entryY=0;entryDx=0;entryDy=0;entryPerimeter=0;" edge="1" parent="1" source="I0Lt0m0cpkMHhaSuFm3Z-51" target="I0Lt0m0cpkMHhaSuFm3Z-54">
          <mxGeometry relative="1" as="geometry" />
        </mxCell>
        <mxCell id="I0Lt0m0cpkMHhaSuFm3Z-61" value="&quot;Algorithm 3.1.1&quot;&lt;div&gt;&lt;span style=&quot;background-color: initial;&quot;&gt;theta_A = base_model&lt;/span&gt;&lt;/div&gt;" style="rounded=0;whiteSpace=wrap;html=1;" vertex="1" parent="1">
          <mxGeometry x="570" y="210" width="120" height="60" as="geometry" />
        </mxCell>
        <mxCell id="I0Lt0m0cpkMHhaSuFm3Z-62" value="&quot;Algorithm 3.1.2&quot;&lt;div&gt;&lt;span style=&quot;background-color: initial;&quot;&gt;theta_B = 2 x nice_model - base_model&lt;/span&gt;&lt;/div&gt;" style="rounded=0;whiteSpace=wrap;html=1;" vertex="1" parent="1">
          <mxGeometry x="795" y="210" width="150" height="60" as="geometry" />
        </mxCell>
        <mxCell id="I0Lt0m0cpkMHhaSuFm3Z-63" style="edgeStyle=orthogonalEdgeStyle;rounded=0;orthogonalLoop=1;jettySize=auto;html=1;exitX=0.5;exitY=1;exitDx=0;exitDy=0;entryX=0.5;entryY=0;entryDx=0;entryDy=0;entryPerimeter=0;" edge="1" parent="1" source="I0Lt0m0cpkMHhaSuFm3Z-61" target="I0Lt0m0cpkMHhaSuFm3Z-46">
          <mxGeometry relative="1" as="geometry" />
        </mxCell>
        <mxCell id="I0Lt0m0cpkMHhaSuFm3Z-64" style="edgeStyle=orthogonalEdgeStyle;rounded=0;orthogonalLoop=1;jettySize=auto;html=1;exitX=0.5;exitY=1;exitDx=0;exitDy=0;entryX=0.5;entryY=0;entryDx=0;entryDy=0;entryPerimeter=0;" edge="1" parent="1" source="I0Lt0m0cpkMHhaSuFm3Z-62" target="I0Lt0m0cpkMHhaSuFm3Z-43">
          <mxGeometry relative="1" as="geometry" />
        </mxCell>
        <mxCell id="I0Lt0m0cpkMHhaSuFm3Z-73" value="&lt;h2&gt;Modded &quot;215c&quot; flowchart&lt;/h2&gt;" style="text;html=1;align=center;verticalAlign=middle;whiteSpace=wrap;rounded=0;" vertex="1" parent="1">
          <mxGeometry x="520" y="40" width="250" height="50" as="geometry" />
        </mxCell>
        <mxCell id="I0Lt0m0cpkMHhaSuFm3Z-77" style="edgeStyle=orthogonalEdgeStyle;rounded=0;orthogonalLoop=1;jettySize=auto;html=1;exitX=0.5;exitY=1;exitDx=0;exitDy=0;exitPerimeter=0;entryX=0.5;entryY=0;entryDx=0;entryDy=0;" edge="1" parent="1" source="I0Lt0m0cpkMHhaSuFm3Z-75" target="I0Lt0m0cpkMHhaSuFm3Z-61">
          <mxGeometry relative="1" as="geometry" />
        </mxCell>
        <mxCell id="I0Lt0m0cpkMHhaSuFm3Z-80" style="edgeStyle=orthogonalEdgeStyle;rounded=0;orthogonalLoop=1;jettySize=auto;html=1;exitX=1;exitY=0.5;exitDx=0;exitDy=0;exitPerimeter=0;entryX=0;entryY=0.5;entryDx=0;entryDy=0;" edge="1" parent="1" source="I0Lt0m0cpkMHhaSuFm3Z-75" target="I0Lt0m0cpkMHhaSuFm3Z-79">
          <mxGeometry relative="1" as="geometry" />
        </mxCell>
        <mxCell id="I0Lt0m0cpkMHhaSuFm3Z-75" value="base_model = SDXL 1.0" style="shape=cylinder3;whiteSpace=wrap;html=1;boundedLbl=1;backgroundOutline=1;size=15;" vertex="1" parent="1">
          <mxGeometry x="580" y="120" width="100" height="60" as="geometry" />
        </mxCell>
        <mxCell id="I0Lt0m0cpkMHhaSuFm3Z-78" style="edgeStyle=orthogonalEdgeStyle;rounded=0;orthogonalLoop=1;jettySize=auto;html=1;exitX=0.5;exitY=1;exitDx=0;exitDy=0;exitPerimeter=0;entryX=0.5;entryY=0;entryDx=0;entryDy=0;" edge="1" parent="1" source="I0Lt0m0cpkMHhaSuFm3Z-76" target="I0Lt0m0cpkMHhaSuFm3Z-62">
          <mxGeometry relative="1" as="geometry" />
        </mxCell>
        <mxCell id="I0Lt0m0cpkMHhaSuFm3Z-83" style="edgeStyle=orthogonalEdgeStyle;rounded=0;orthogonalLoop=1;jettySize=auto;html=1;exitX=1;exitY=0.5;exitDx=0;exitDy=0;exitPerimeter=0;entryX=1;entryY=0.5;entryDx=0;entryDy=0;" edge="1" parent="1" source="I0Lt0m0cpkMHhaSuFm3Z-76" target="I0Lt0m0cpkMHhaSuFm3Z-51">
          <mxGeometry relative="1" as="geometry" />
        </mxCell>
        <mxCell id="I0Lt0m0cpkMHhaSuFm3Z-76" value="nice_model = &quot;215a&quot; = DGMLA (base_model, 216x individual_raw_models)" style="shape=cylinder3;whiteSpace=wrap;html=1;boundedLbl=1;backgroundOutline=1;size=15;" vertex="1" parent="1">
          <mxGeometry x="780" y="105" width="180" height="90" as="geometry" />
        </mxCell>
        <mxCell id="I0Lt0m0cpkMHhaSuFm3Z-79" value="DGMLA merge" style="rounded=0;whiteSpace=wrap;html=1;" vertex="1" parent="1">
          <mxGeometry x="690" y="130" width="80" height="40" as="geometry" />
        </mxCell>
        <mxCell id="I0Lt0m0cpkMHhaSuFm3Z-81" style="edgeStyle=orthogonalEdgeStyle;rounded=0;orthogonalLoop=1;jettySize=auto;html=1;exitX=1;exitY=0.5;exitDx=0;exitDy=0;entryX=0;entryY=0.5;entryDx=0;entryDy=0;entryPerimeter=0;" edge="1" parent="1" source="I0Lt0m0cpkMHhaSuFm3Z-79" target="I0Lt0m0cpkMHhaSuFm3Z-76">
          <mxGeometry relative="1" as="geometry" />
        </mxCell>
      </root>
    </mxGraphModel>
  </diagram>
</mxfile>
